<?xml version="1.0" encoding="utf-8"?>
<!-- Generator: Adobe Illustrator 24.2.1, SVG Export Plug-In . SVG Version: 6.00 Build 0)  -->
<svg version="1.1" id="Layer_1" xmlns="http://www.w3.org/2000/svg" xmlns:xlink="http://www.w3.org/1999/xlink" x="0px" y="0px"
	 viewBox="0 0 894 280" style="enable-background:new 0 0 894 280;" xml:space="preserve">
<style type="text/css">
	.st0{fill:#13BA9A;}
	.st1{fill:#FFFFFF;}
</style>
<g>
	<g>
		<path class="st0" d="M190.6,148v7.2h15.9v13.2h-15.9v45.3h-13v-45.3h-8v-13.2h8v-5.9c0-14.1,10.4-20.9,20.9-20.9
			c4.9,0,9.8,1.4,13.7,4.2l-5,10c-2.5-1.8-5.6-2.9-8.3-2.9C194.3,139.8,190.6,142.3,190.6,148z"/>
	</g>
	<g>
		<path class="st0" d="M232,165c4.1-8.2,11.4-12.6,21-12.6V165c-12.2-0.7-20,6.5-21,16.9v31.7h-13.1v-60.7H232V165z"/>
	</g>
	<g>
		<path class="st0" d="M316.3,188.3h-45.9c2.1,9.4,9.2,15.2,18.8,15.2c6.6,0,12.7-2.5,17.1-7.1l7,7.4c-5.9,6.5-14.6,10.3-25.1,10.3
			c-18.7,0-31-12.4-31-30.7c0-18.4,12.7-30.8,30.7-30.9C309.2,152.4,317.9,166.4,316.3,188.3z M304.9,178.7
			c-0.5-9.8-7-15.7-16.9-15.7c-9.6,0-16.3,6-17.8,15.7H304.9z"/>
	</g>
	<g>
		<path class="st0" d="M340.8,135.6c0,4.6-3.3,7.9-7.6,7.9c-4.3,0-7.6-3.3-7.6-7.9c0-4.7,3.3-8,7.6-8
			C337.5,127.6,340.8,130.9,340.8,135.6z M326.6,213.6v-60.7h13v60.7H326.6z"/>
	</g>
	<g>
		<path class="st0" d="M412.8,207.7c0,17.5-12.4,28.4-31.5,28.4c-9.5,0-17.8-3-25.2-8l5.6-9.5c5.7,4.2,11.6,6.6,19.1,6.6
			c11.5,0,19.1-6.7,19.1-17.2v-7.6c-4.1,6.6-11,10.3-20.1,10.3c-16.4,0-27.4-11.9-27.4-29.3c0-17.1,10.8-28.8,26.9-28.9
			c9.4-0.1,16.3,3.7,20.5,10.3V153h13V207.7z M399.8,181.7c0-11-7.2-18.6-17.5-18.6c-10.4,0-17.6,7.8-17.7,18.6
			c0.1,11,7.2,18.7,17.7,18.7C392.6,200.4,399.8,192.6,399.8,181.7z"/>
	</g>
	<g>
		<path class="st0" d="M483.1,175.8v37.8H470v-34.1c0-9.1-5.5-14.7-14.6-14.7c-10.8,0.1-17.3,8.2-17.3,18.9v29.9H425v-84.7h13.1
			v35.8c4.3-8.6,12.1-12.3,22.5-12.3C474.7,152.4,483.1,161.3,483.1,175.8z"/>
	</g>
	<g>
		<path class="st0" d="M534.1,209.7c-4.8,2.9-9.8,4.4-14.9,4.4c-9.1,0-17-5.2-17-17.7v-28.1h-8.6v-13.2h8.6v-16.7h13v16.7H533v13.2
			h-17.9V194c0,6.3,2.4,8.2,6.5,8.2c2.7,0,5.6-0.9,9.1-2.6L534.1,209.7z"/>
	</g>
	<g>
		<path class="st0" d="M512,261.8c1.7,1.1,4.2,2,6.9,2c4,0,6.3-2.1,6.3-5.1c0-2.8-1.6-4.4-5.7-5.9c-4.9-1.8-7.9-4.4-7.9-8.5
			c0-4.7,3.9-8.1,9.7-8.1c3,0,5.3,0.7,6.6,1.5l-1.1,3.2c-0.9-0.6-2.9-1.4-5.7-1.4c-4.1,0-5.7,2.4-5.7,4.5c0,2.8,1.8,4.2,6,5.8
			c5.1,2,7.6,4.4,7.6,8.8c0,4.6-3.4,8.7-10.5,8.7c-2.9,0-6.1-0.9-7.7-2L512,261.8z"/>
		<path class="st0" d="M538.7,239c0,1.3-0.9,2.4-2.5,2.4c-1.4,0-2.4-1.1-2.4-2.4c0-1.3,1-2.4,2.4-2.4
			C537.7,236.5,538.7,237.6,538.7,239z M534.3,266.6V245h3.9v21.5h-3.9V266.6z"/>
		<path class="st0" d="M544.7,250.8c0-2.3-0.1-4.1-0.2-5.8h3.4l0.2,3.5h0.1c1.2-2,3.2-4,6.8-4c2.9,0,5.1,1.8,6.1,4.3h0.1
			c0.7-1.2,1.6-2.1,2.4-2.8c1.3-1,2.7-1.5,4.7-1.5c2.9,0,7.1,1.9,7.1,9.3v12.6h-3.8v-12.2c0-4.2-1.6-6.6-4.7-6.6
			c-2.3,0-4,1.6-4.7,3.5c-0.2,0.6-0.3,1.2-0.3,2v13.3h-3.8v-12.9c0-3.4-1.5-5.9-4.5-5.9c-2.4,0-4.2,2-4.9,3.9
			c-0.2,0.5-0.3,1.2-0.3,1.9v13h-3.8v-15.6H544.7z"/>
		<path class="st0" d="M581.9,252c0-2.8-0.1-5-0.2-7h3.5l0.2,3.7h0.1c1.6-2.6,4.1-4.1,7.7-4.1c5.3,0,9.2,4.4,9.2,10.9
			c0,7.7-4.8,11.6-9.8,11.6c-2.8,0-5.3-1.2-6.6-3.4h-0.1v11.7H582V252H581.9z M585.7,257.8c0,0.6,0,1.1,0.2,1.6
			c0.7,2.7,3.1,4.6,5.9,4.6c4.1,0,6.5-3.4,6.5-8.3c0-4.3-2.3-8-6.4-8c-2.7,0-5.2,1.9-5.9,4.8c-0.1,0.5-0.3,1.1-0.3,1.6V257.8z"/>
		<path class="st0" d="M607.2,234.9h3.9v31.6h-3.9V234.9z"/>
		<path class="st0" d="M622.1,239c0,1.3-0.9,2.4-2.5,2.4c-1.4,0-2.4-1.1-2.4-2.4c0-1.3,1-2.4,2.4-2.4
			C621.1,236.5,622.1,237.6,622.1,239z M617.7,266.6V245h3.9v21.5h-3.9V266.6z"/>
		<path class="st0" d="M628.5,266.6V248h-3v-3h3v-1c0-3,0.7-5.8,2.5-7.5c1.5-1.4,3.4-2,5.3-2c1.4,0,2.6,0.3,3.3,0.6l-0.5,3
			c-0.6-0.3-1.3-0.5-2.5-0.5c-3.3,0-4.2,2.9-4.2,6.2v1.2h5.2v3h-5.2v18.6H628.5z"/>
		<path class="st0" d="M642.5,245l4.7,12.7c0.5,1.4,1.1,3.1,1.4,4.4h0.1c0.4-1.3,0.8-2.9,1.4-4.5l4.3-12.6h4.1l-5.9,15.4
			c-2.8,7.4-4.7,11.1-7.4,13.5c-2,1.6-3.8,2.3-4.8,2.5l-1-3.3c1-0.3,2.3-0.9,3.4-1.9c1.1-0.8,2.4-2.4,3.3-4.4
			c0.2-0.4,0.3-0.7,0.3-0.9c0-0.2-0.1-0.5-0.3-1l-7.9-19.9L642.5,245L642.5,245z"/>
		<path class="st0" d="M666.4,239c0,1.3-0.9,2.4-2.5,2.4c-1.4,0-2.4-1.1-2.4-2.4c0-1.3,1-2.4,2.4-2.4
			C665.5,236.5,666.4,237.6,666.4,239z M662.1,266.6V245h3.9v21.5h-3.9V266.6z"/>
		<path class="st0" d="M672.5,250.8c0-2.3,0-4.1-0.2-5.8h3.5l0.2,3.6h0.1c1.1-2,3.6-4,7.1-4c3,0,7.6,1.8,7.6,9.2v12.8h-3.9v-12.4
			c0-3.5-1.3-6.4-5-6.4c-2.5,0-4.5,1.8-5.3,4c-0.2,0.5-0.3,1.2-0.3,1.8v13h-3.9v-15.8H672.5z"/>
		<path class="st0" d="M715.6,263.4c0,5-1,8-3.1,9.9s-5.2,2.6-7.9,2.6c-2.6,0-5.4-0.6-7.2-1.8l1-3c1.4,0.9,3.7,1.7,6.3,1.7
			c4,0,6.9-2.1,6.9-7.6v-2.4h-0.1c-1.2,2-3.5,3.6-6.9,3.6c-5.3,0-9.2-4.5-9.2-10.5c0-7.3,4.8-11.4,9.8-11.4c3.7,0,5.7,1.9,6.7,3.7
			h0.1l0.1-3.2h3.5c-0.1,1.5-0.2,3.3-0.2,5.9v12.5H715.6z M711.7,253.5c0-0.7,0-1.2-0.2-1.7c-0.7-2.3-2.6-4.2-5.5-4.2
			c-3.7,0-6.4,3.2-6.4,8.1c0,4.2,2.2,7.7,6.4,7.7c2.4,0,4.6-1.5,5.4-4c0.2-0.7,0.3-1.4,0.3-2.1V253.5z"/>
		<path class="st0" d="M731.6,236.5h3.9v26.8h12.8v3.2h-16.7V236.5z"/>
		<path class="st0" d="M771.4,255.6c0,8-5.6,11.4-10.7,11.4c-5.8,0-10.3-4.3-10.3-11.1c0-7.2,4.8-11.4,10.7-11.4
			C767.2,244.6,771.4,249.1,771.4,255.6z M754.4,255.8c0,4.7,2.7,8.3,6.5,8.3c3.7,0,6.5-3.5,6.5-8.4c0-3.7-1.8-8.2-6.5-8.2
			C756.4,247.5,754.4,251.8,754.4,255.8z"/>
		<path class="st0" d="M794.8,263.4c0,5-1,8-3.1,9.9s-5.2,2.6-7.9,2.6c-2.6,0-5.4-0.6-7.2-1.8l1-3c1.4,0.9,3.7,1.7,6.3,1.7
			c4,0,6.9-2.1,6.9-7.6v-2.4h-0.1c-1.2,2-3.5,3.6-6.9,3.6c-5.3,0-9.2-4.5-9.2-10.5c0-7.3,4.8-11.4,9.8-11.4c3.7,0,5.7,1.9,6.7,3.7
			h0.1l0.1-3.2h3.5c-0.1,1.5-0.2,3.3-0.2,5.9v12.5H794.8z M790.9,253.5c0-0.7,0-1.2-0.2-1.7c-0.7-2.3-2.6-4.2-5.5-4.2
			c-3.7,0-6.4,3.2-6.4,8.1c0,4.2,2.2,7.7,6.4,7.7c2.4,0,4.6-1.5,5.4-4c0.2-0.7,0.3-1.4,0.3-2.1V253.5z"/>
		<path class="st0" d="M805.4,239c0,1.3-0.9,2.4-2.5,2.4c-1.4,0-2.4-1.1-2.4-2.4c0-1.3,1-2.4,2.4-2.4
			C804.4,236.5,805.4,237.6,805.4,239z M801,266.6V245h3.9v21.5H801V266.6z"/>
		<path class="st0" d="M810.9,262.6c1.2,0.7,3.3,1.5,5.2,1.5c2.8,0,4.1-1.4,4.1-3.2c0-1.9-1.1-2.8-4-3.9c-3.9-1.4-5.7-3.5-5.7-6.1
			c0-3.5,2.8-6.3,7.4-6.3c2.2,0,4.1,0.6,5.3,1.3l-0.9,2.8c-0.8-0.5-2.4-1.3-4.4-1.3c-2.3,0-3.6,1.3-3.6,2.9c0,1.8,1.2,2.6,4.1,3.7
			c3.7,1.4,5.7,3.2,5.7,6.5c0,3.8-3,6.5-8,6.5c-2.4,0-4.5-0.6-6.1-1.5L810.9,262.6z"/>
		<path class="st0" d="M833.8,239.8v5.2h5.6v3h-5.6v11.6c0,2.7,0.8,4.2,2.9,4.2c1.1,0,1.7-0.1,2.3-0.3l0.2,3c-0.8,0.3-2,0.5-3.5,0.5
			c-1.8,0-3.3-0.6-4.2-1.6c-1.1-1.2-1.5-3.1-1.5-5.7V248h-3.3v-3h3.3v-4L833.8,239.8z"/>
		<path class="st0" d="M848.1,239c0,1.3-0.9,2.4-2.5,2.4c-1.4,0-2.4-1.1-2.4-2.4c0-1.3,1-2.4,2.4-2.4
			C847.2,236.5,848.1,237.6,848.1,239z M843.8,266.6V245h3.9v21.5h-3.9V266.6z"/>
		<path class="st0" d="M869.6,265.8c-1,0.5-3.3,1.2-6.2,1.2c-6.5,0-10.7-4.4-10.7-11c0-6.6,4.5-11.5,11.6-11.5
			c2.3,0,4.4,0.6,5.4,1.2l-0.9,3c-0.9-0.5-2.4-1-4.5-1c-4.9,0-7.6,3.7-7.6,8.1c0,5,3.2,8.1,7.5,8.1c2.2,0,3.7-0.5,4.8-1L869.6,265.8
			z"/>
		<path class="st0" d="M873.6,262.6c1.2,0.7,3.3,1.5,5.2,1.5c2.8,0,4.1-1.4,4.1-3.2c0-1.9-1.1-2.8-4-3.9c-3.9-1.4-5.7-3.5-5.7-6.1
			c0-3.5,2.8-6.3,7.4-6.3c2.2,0,4.1,0.6,5.3,1.3l-0.9,2.8c-0.8-0.5-2.4-1.3-4.4-1.3c-2.3,0-3.6,1.3-3.6,2.9c0,1.8,1.2,2.6,4.1,3.7
			c3.7,1.4,5.7,3.2,5.7,6.5c0,3.8-3,6.5-8,6.5c-2.4,0-4.5-0.6-6.1-1.5L873.6,262.6z"/>
	</g>
</g>
<g>
	<g>
		<path class="st1" d="M602.8,183.9c0,17.3-11.9,29.8-28.6,29.8c-11.6,0-20.8-6-25.2-15.6v31h-4.8v-74.9h4.8v15.6
			c4.4-9.7,13.6-15.7,25.2-15.7C590.8,154,602.8,166.5,602.8,183.9z M598.2,183.9c0-14.7-10.3-25.4-24.6-25.4s-24.5,10.7-24.5,25.4
			s10.3,25.3,24.5,25.3C587.9,209.3,598.2,198.7,598.2,183.9z"/>
	</g>
	<g>
		<path class="st1" d="M669.4,185.2h-51.9c0.7,14.5,10.7,24.2,24.5,24.2c8.1,0,15.3-3,20.1-8.2l2.7,3.1c-5.5,5.9-13.6,9.5-23,9.5
			c-16.8,0-29-12.3-29-29.8s12.2-29.9,29-29.9C659.2,154,669.7,166.8,669.4,185.2z M665,181c-0.9-13.5-9.7-22.6-23.3-22.6
			c-13.3,0-23,9.1-24.2,22.6H665z"/>
	</g>
	<g>
		<path class="st1" d="M735.3,183.8c0,17.6-12.3,29.9-29.3,29.9c-16.9,0-29.3-12.3-29.3-29.9c0-17.3,12.4-29.8,29.3-29.8
			C723,154,735.3,166.5,735.3,183.8z M681.3,183.9c0,15,10.4,25.3,24.6,25.3c14.4,0,24.6-10.4,24.6-25.3c0-14.9-10.3-25.3-24.6-25.3
			C691.7,158.6,681.3,169,681.3,183.9z"/>
	</g>
	<g>
		<path class="st1" d="M801.8,183.9c0,17.3-11.9,29.8-28.6,29.8c-11.6,0-20.8-6-25.2-15.6v31h-4.8v-74.9h4.8v15.6
			c4.5-9.7,13.6-15.7,25.2-15.7C789.8,154,801.8,166.5,801.8,183.9z M797.2,183.9c0-14.7-10.3-25.4-24.6-25.4s-24.5,10.7-24.5,25.4
			s10.3,25.3,24.5,25.3C786.9,209.3,797.2,198.7,797.2,183.9z"/>
	</g>
	<g>
		<path class="st1" d="M813.1,213.6v-84.7h4.8v84.7H813.1z"/>
	</g>
	<g>
		<path class="st1" d="M885.7,185.2h-51.9c0.7,14.5,10.7,24.2,24.5,24.2c8.1,0,15.3-3,20.1-8.2l2.7,3.1c-5.5,5.9-13.6,9.5-23,9.5
			c-16.8,0-29-12.3-29-29.8s12.2-29.9,29-29.9C875.5,154,886,166.8,885.7,185.2z M881.3,181c-0.9-13.5-9.7-22.6-23.3-22.6
			c-13.4,0-23,9.1-24.2,22.6H881.3z"/>
	</g>
</g>
<path class="st1" d="M216.8,84.8c-15.1-57.1-73.9-91.2-131-76.1C28.7,23.9-5.5,82.6,9.7,139.7c15.1,57.1,73.9,91.2,131,76.1
	c7.4-2,14.4-4.6,20.9-8c0,0-53,21.7-91.6-3.3c8.9,1.7,23.1,2.1,33,0.8c4.3,1.9,10.5,4,18.6,5.2c0,0-10.6-3.3-14.6-6.2
	c0.4-0.1,0.3-0.1,0.2,0c12.4-2.4,20.4-5.8,28.7-9.9c2.1,1.6,4.9,2.3,7.6,1.6c4.6-1.2,7.4-5.9,6.2-10.4s-5.9-7.2-10.5-5.9
	c-4.6,1.2-7.4,5.9-6.2,10.4c0.1,0.4,0.3,0.7,0.4,1.1c-10.2,4.9-19.5,8.4-32.5,9.8c0,0-14.5-10-22.4-17.9c1.2-2.1,1.7-4.7,1-7.3
	c-1.4-5.2-6.7-8.2-12-6.8c-3.7,1-6.3,3.9-7.1,7.3c-10.6-1.4-20.2-5-28.1-10.4c-1.4-1-2.8-2.1-4.2-3.2c-1-0.8-1.9-1.6-2.7-2.4
	c-3.9-7.1-7-14.8-9.1-22.7c-2-7.5-3.1-15.3-3.3-23.2c0.2-0.7,0.5-1.5,0.7-2.2c1.5,4.3,3.6,8.3,6.3,11.8c1.7,2.2,3.7,4.2,5.9,6
	c0.8,0.7,1.7,1.4,2.7,2c6.2,4.3,13.6,7,22.1,8c1.5,10.3,4.5,19.4,8.9,27.5c1.5-1.6,3.8-2.5,6.2-3.3c-3.6-7.3-6.4-15.2-8.2-23.7
	c6.8,0.1,14-0.9,21.3-2.8c1.2-0.3,2.4-0.7,3.5-1c2.9,3.5,7.8,5.3,12.6,4c6.6-1.7,10.5-8.4,8.8-14.8c-1.7-6.4-8.4-10.2-15-8.5
	s-10.5,8.4-8.8,14.8c0.1,0.2,0.2,0.4,0.2,0.6c-0.8,0.3-1.7,0.5-2.5,0.8c-7.3,1.9-14.4,2.8-21.1,2.7c-2.2-12.4-2.5-26-1-40.5
	c11.3,0.2,23.9-4.3,34.7-12.1c0.2-0.2,0.5-0.4,0.7-0.5c8.9,10.2,17.4,19.9,25.3,29l5.7,6.6c9.1,10.5,17.3,20.1,24.5,28.6
	c-1.1,0.9-2.2,1.8-3.4,2.7c-14.9,11.7-31.9,20.1-49,24.2c0.9,1.3,1.8,2.5,2.8,3.7c17-4.4,33.9-12.8,48.8-24.5
	c1.2-0.9,2.3-1.9,3.5-2.8c2.4,2.9,4.7,5.6,6.9,8.2c1.4-1.3,3.1-2.3,4.8-3.2c-2.5-3-4.9-5.9-7.3-8.8c12.6-11.4,22.4-24.4,29.2-38.3
	c1.3,0.3,2.6,0.3,4-0.1c4.6-1.2,7.4-5.9,6.2-10.4s-5.9-7.2-10.5-5.9c-4.6,1.2-7.4,5.9-6.2,10.4c0.4,1.7,1.4,3.1,2.6,4.2
	c-6.5,13.3-16,25.8-28.1,36.8c-9.3-11.1-18.3-21.6-26.7-31.2l-2.8-3.2c-9.7-11-18.6-20.8-26.5-29.1c3.1-2.7,5.8-5.5,8.3-8.6
	c1.1,0.2,2.2,0.2,3.3-0.1c3.8-1,6.1-4.9,5.1-8.6c-1-3.7-4.9-6-8.7-4.9c-3.8,1-6.1,4.9-5.1,8.6c0.3,1.1,0.9,2.1,1.6,2.9
	c-2.2,2.7-4.7,5.2-7.4,7.6c-9.1-9.5-16.8-16.9-23-22c1.5-1.2,2.5-2.9,2.5-4.6l0.8-0.1c1.5-0.1,3-0.2,3.3-0.2
	c6.5-0.2,16.1-0.3,27.4,0.4c2.1,0.1,16.9,1.6,20,2C133,54,142.5,56,151,58.7c-0.5,3.3-1.3,6.8-2.4,10.1
	c-3.2,10.1-8.7,19.8-16.1,28.8c1.1,0.9,2.2,1.9,3.2,2.9c7.8-9.5,13.6-19.8,17-30.4c1.1-3.4,1.9-6.8,2.4-10.1
	c8.6,2.9,16.2,6.7,22.9,10.6c15.3,8.9,23.7,22.5,26.8,29.3l1.5,3.3l-0.2-3.6c0-0.5-0.9-12.4-13.3-24.8c-1.3-1.4-4-3.8-4-3.7
	c-8.5-7.1-19.6-12.6-33-16.5c0.5-7.2-0.4-14-2.8-20c-0.4-1.2-0.9-2.2-1.3-3.1c-1.3-2.6-2.8-5.1-4.6-7.3c-3-3.8-6.7-7-10.9-9.6
	c16.8,4,32.4,12.3,45.1,24c0.5,0.9,1,1.8,1.4,2.6c0.8,1.5,1.5,3.2,2.1,4.8c2,5.2,3.2,10.8,3.7,16.7c1.4,1.3,2.9,2.6,4.5,3.8
	c-0.1-6.2-1-12.1-2.6-17.6c-0.1-0.4-0.2-0.8-0.4-1.2c3.8,4.5,7.3,9.2,10.1,14.4C220.4,99.4,219,128,219,128
	C221.3,113.9,220.6,99.3,216.8,84.8z M139.9,182.7c2.9-0.8,5.8,0.9,6.5,3.7s-1,5.7-3.8,6.4c-2.9,0.8-5.8-0.9-6.5-3.7
	C135.4,186.3,137.1,183.4,139.9,182.7z M33.8,171.9c7.7,4.5,16.8,7.4,26.6,8.7c0,0.1,0,0.2,0,0.3c1.4,5.1,6.7,8.2,12,6.8
	c1.1-0.3,2.1-0.8,2.9-1.4c5.4,4.3,13.6,10.1,21.9,15.5c-19.7,1.1-36.2-2.2-48.4-13l-0.3-0.3l-0.1,0.1c-5.1-4.6-12.1-12.1-16.1-17.6
	C32.8,171.3,33.3,171.6,33.8,171.9z M90.4,122.4c3.7-1,7.5,1.2,8.4,4.8c1,3.6-1.3,7.3-4.9,8.3c-3.7,1-7.5-1.2-8.4-4.8
	C84.5,127.1,86.7,123.4,90.4,122.4z M86,15.6c0.8-0.3,0.8-0.3,2.7-0.8v0.1c7.9-2,13.5-2.7,20.5-3c0.5,0,0.8,0,1.3,0l-0.1,0.1
	c4.3,0.1,8.3,0.6,12.1,1.6c-8.2,1.3-16.3,3.8-23.8,7.4c-4.5-1.7-9.6-2.5-15.1-2.2c-3.2,0.2-6.4,0.7-9.6,1.5
	C78,18.4,82.2,16.8,86,15.6z M34.6,59.3c0.6-1.5,1.3-3.1,2.1-4.7c2.7-5.2,6.4-10.2,11.2-14.8l13.7,9.5c-0.7,1.3-0.8,2.6-0.4,3.8
	C55.9,56,43.8,63,32.7,74C32,69.6,32.7,64.5,34.6,59.3z M17.2,84.6c0.7-2.8,1.5-5.6,2.5-8.4l0.1-0.4c0.2-0.5,0.4-1,0.6-1.5
	c0.7-1.7,1.4-3.3,2.2-4.9c0.7-1.5,1.4-3,2.2-4.4l0.4-0.6c2.1-3.7,4.4-7.2,7.1-10.7c-0.7,1.4-1.3,2.8-1.8,4.2
	c-0.4,1.2-0.8,2.5-1.2,3.7c-1.5,5.8-1.6,11.2-0.2,16.2C23.5,84,19,90.6,15.7,97.4C15.7,93.3,16.2,89,17.2,84.6z M50.3,135.6
	c-7.8-1.1-14.6-3.7-20.2-7.9c-0.9-0.6-1.7-1.3-2.5-2c-1.5-1.4-2.9-2.8-4.1-4.4c-3.6-4.6-6-9.9-7.1-16c3.6-8.6,8.3-16.6,14-24
	c0.6,1.4,1.4,2.6,2.3,3.8c2.2,3.1,5.2,5.6,8.9,7.4c0.9,0.4,1.8,0.8,2.8,1.2c2.3,0.8,4.8,1.4,7.4,1.7C49.6,110,49,123.5,50.3,135.6z
	 M52.7,91.2c-2.2-0.2-4.2-0.7-6.1-1.3c-0.9-0.3-1.8-0.7-2.7-1.1c-3.2-1.5-5.8-3.6-7.7-6.2c-1.1-1.5-2-3.2-2.6-5.1
	c7.9-9.2,17.3-16.9,28.2-23.1c0.2,0.3,0.5,0.5,0.8,0.8C60.1,62,55.7,75.2,52.7,91.2z M88.5,79.8c-0.1,0.1-0.3,0.2-0.4,0.3
	c-9.8,7.1-21.4,11.3-31.6,11.3c1.5-11.3,4-23.2,7.6-35.4c1,0.3,2.2,0.2,3.3-0.2C71.1,60.1,78.8,68.8,88.5,79.8z M67.9,46
	c-1.5-0.2-3.1,0.2-4.4,1.2c-0.3,0.2-0.6,0.5-0.8,0.7l-12-10.7c1.4-1.2,2.5-2.1,3.8-3c6.2-4.5,12.1-7.6,20-9.7l-0.2-0.6l0.3,0.6
	c6.7-1.8,13.2-2,18.8-0.8C83.9,29.2,75.2,36.7,67.9,46z M144,26.7c1.2,1.5,2.3,3.2,3.3,5.1c0.5,1,1,2,1.4,2.9
	c2.4,5.6,3.4,11.8,3,18.6c-7.9-2-16.7-3.5-26.2-4.5c-3.7-0.4-19.3-1.2-21.2-1.2c-10.3-0.2-21.4,0.2-33,1.1c-0.1-0.4-0.3-0.8-0.6-1.1
	c-0.3-0.4-0.6-0.7-1-1c5.2-5.1,15.3-14.1,29-21.2c9.5,3,13.6,10.3,15.4,14.9c0-0.2,0-0.3-0.1-0.5c-0.1-1-0.4-2-0.6-3
	c-0.8-2.8-2-5.4-3.7-7.7s-3.8-4.3-6.4-5.9c8.2-3.8,16.6-6.4,25-7.8C134.9,17.9,140.1,21.7,144,26.7z"/>
</svg>
