<svg width="286" height="286" viewBox="0 0 286 286" fill="none" xmlns="http://www.w3.org/2000/svg">
<path d="M183.82 28.7067C185.452 30.7707 186.905 33.0094 188.268 35.5467C188.959 36.8454 189.596 38.16 190.151 39.4707C193.289 46.876 194.645 55.2094 194.188 64.2614C183.596 61.5494 171.905 59.5494 159.276 58.2854C154.387 57.7947 133.567 56.752 131.073 56.712C117.289 56.492 102.554 56.9787 87.1385 58.1694C86.9563 57.6334 86.6921 57.1334 86.364 56.6974C85.9926 56.2 85.5369 55.7707 85.0036 55.4214C91.8776 48.6214 105.364 36.6787 123.693 27.1054C136.373 31.1134 141.869 40.7774 144.269 46.9494C144.243 46.728 144.229 46.5041 144.199 46.2894C144.003 44.9787 143.727 43.6294 143.364 42.2827C142.339 38.5014 140.685 35.0227 138.453 31.952C136.184 28.8374 133.325 26.176 129.921 24.028C140.86 18.9667 152.116 15.464 163.319 13.6454C171.716 17.028 178.615 22.096 183.82 28.7067V28.7067ZM82.3458 54.4547C80.3562 54.188 78.1771 54.7827 76.4145 56.0987C76.0255 56.384 75.6724 56.7094 75.3254 57.0774L59.5369 42.74C61.3412 41.204 62.9145 39.9 64.5604 38.704C72.8917 32.648 80.7166 28.54 91.2125 25.7587L90.9869 24.912L91.4453 25.7C100.429 23.3347 109.083 22.9854 116.534 24.6854C103.679 32.0707 92.2063 42.0707 82.3458 54.4547V54.4547ZM109.883 99.6147C109.697 99.7587 109.508 99.8934 109.32 100.028C96.2136 109.556 80.8458 115.133 67.1297 115.075C69.0729 100.035 72.4943 84.1574 77.312 67.8627C78.6771 68.2254 80.2197 68.1507 81.7156 67.6214C86.7031 73.2587 96.936 84.8534 109.883 99.6147V99.6147ZM62.126 114.801C59.2156 114.485 56.5005 113.915 54.0479 113.105C52.812 112.697 51.5817 112.212 50.401 111.655C46.1276 109.648 42.6797 106.867 40.1584 103.397C38.6828 101.372 37.5068 99.0894 36.6693 96.624C47.1645 84.4147 59.7995 74.0827 74.226 65.876C74.5203 66.2494 74.8729 66.5867 75.2802 66.8814C71.9588 75.8934 66.0989 93.464 62.126 114.801V114.801ZM58.9666 174.025C48.5156 172.588 39.4645 169.065 32.0708 163.541C30.9172 162.679 29.7964 161.759 28.738 160.808C26.7292 159.004 24.8885 157.044 23.2702 154.992C18.4817 148.916 15.3041 141.735 13.8084 133.629C18.5802 122.191 24.8776 111.44 32.5292 101.643C33.3776 103.455 34.3854 105.169 35.5417 106.753C38.5292 110.856 42.5312 114.157 47.4421 116.556C48.5969 117.121 49.8625 117.655 51.2136 118.145C54.264 119.244 57.6036 120.016 61.1448 120.427C57.95 139.857 57.2156 157.879 58.9666 174.025V174.025ZM14.8505 105.931C15.7182 102.188 16.8526 98.4214 18.2166 94.7374L18.4145 94.2307C18.6672 93.5814 18.9202 92.9307 19.1885 92.28C20.0802 90.044 21.0541 87.8267 22.089 85.6854C23.014 83.716 24.0172 81.716 25.025 79.8134L25.5292 79.0614C28.2702 74.1907 31.4193 69.4094 34.936 64.7587C34.0494 66.612 33.2609 68.4707 32.589 70.3134C31.9896 71.9547 31.4604 73.6294 31.0234 75.2894C28.974 83.028 28.8854 90.28 30.7505 96.8507C23.2125 105.151 17.2026 113.936 12.8427 123.011C12.8208 117.504 13.4942 111.78 14.8505 105.931V105.931ZM37.9478 72.2707C38.6932 70.2427 39.615 68.1294 40.6984 65.992C44.2364 58.992 49.2484 52.3627 55.6005 46.2854L73.9145 59.004C73.0265 60.6854 72.8208 62.5134 73.3391 64.1267C66.3505 67.8294 50.2994 77.1694 35.5005 91.884C34.5786 85.924 35.4161 79.1814 37.9478 72.2707V72.2707ZM106.605 13.9187C107.697 13.5747 107.634 13.556 110.254 12.844L110.275 12.9214C120.781 10.1881 128.298 9.26801 137.605 8.86268C138.257 8.83468 138.717 8.85602 139.367 8.83735L139.283 8.94936C144.991 9.0707 150.349 9.80403 155.445 11.0827C144.464 12.7587 133.687 16.0894 123.709 20.9C117.737 18.58 110.969 17.6054 103.566 18.004C99.3317 18.2374 95.0235 18.9027 90.7521 19.9787C95.864 17.636 101.411 15.54 106.605 13.9187V13.9187ZM112.419 156.379C117.338 155.072 122.361 157.919 123.639 162.735C124.915 167.551 121.964 172.513 117.042 173.813C112.122 175.12 107.099 172.277 105.823 167.459C104.547 162.645 107.497 157.683 112.419 156.379ZM37.0052 222.367C47.313 228.347 59.4193 232.265 72.5109 233.952C72.5369 234.065 72.5344 234.179 72.565 234.292C74.3822 241.155 81.5494 245.22 88.5661 243.36C90.0188 242.973 91.315 242.324 92.4973 241.538C99.7609 247.235 110.628 254.996 121.653 262.249C95.3688 263.668 73.3625 259.331 57.1344 244.907L56.7229 244.545L56.5312 244.626C49.6921 238.464 40.3864 228.519 35.0068 221.171C35.6718 221.581 36.3364 221.98 37.0052 222.367ZM178.448 236.759C182.252 235.75 186.139 237.949 187.127 241.673C188.115 245.4 185.827 249.237 182.025 250.244C178.219 251.256 174.335 249.055 173.344 245.331C172.36 241.607 174.641 237.765 178.448 236.759ZM280.893 106.237C260.707 30.1174 182.357 -15.392 106.235 4.79468C30.1125 24.9787 -15.3984 103.329 4.78695 179.449C24.9729 255.565 103.329 301.072 179.448 280.889C189.28 278.281 198.605 274.701 207.335 270.281C207.335 270.281 136.691 299.195 85.2631 265.9C97.1527 268.183 116.016 268.676 129.329 266.977C135.084 269.452 143.364 272.321 154.069 273.95C154.069 273.95 139.956 269.55 134.617 265.617C135.125 265.525 135.069 265.529 134.869 265.568C151.381 262.409 162.079 257.792 173.089 252.367C175.831 254.565 179.568 255.496 183.275 254.513C189.396 252.888 193.077 246.711 191.485 240.713C189.893 234.709 183.639 231.165 177.513 232.792C171.384 234.415 167.707 240.597 169.292 246.593C169.425 247.097 169.637 247.557 169.833 248.023C156.195 254.513 143.791 259.263 126.459 261.072C126.459 261.072 107.12 247.697 96.6202 237.243C98.2802 234.396 98.864 230.952 97.9656 227.557C96.1432 220.688 88.9839 216.636 81.9667 218.496C77.062 219.795 73.5833 223.661 72.5265 228.209C58.3505 226.284 45.5265 221.593 35.065 214.403C33.1568 213.093 31.2812 211.665 29.4953 210.157C28.175 209.048 27.0109 208.005 25.9406 206.964C20.6806 197.441 16.5969 187.256 13.7917 176.685C11.1292 166.648 9.64477 156.261 9.38801 145.817C9.68853 144.839 10.0109 143.841 10.3484 142.832C12.2963 148.605 15.1292 153.881 18.7822 158.52C21.0958 161.452 23.7552 164.161 26.686 166.568C27.8041 167.489 29.0021 168.396 30.2412 169.249C38.4912 174.968 48.4084 178.537 59.7166 179.869C61.775 193.575 65.7802 205.799 71.5802 216.477C73.5464 214.336 76.6417 213.087 79.8027 212.075C75.0255 202.347 71.3073 191.808 68.8688 180.421C77.9781 180.507 87.5369 179.243 97.2937 176.655C98.8719 176.237 100.448 175.781 102.023 175.292C105.935 180.001 112.425 182.295 118.84 180.593C127.581 178.275 132.832 169.459 130.56 160.9C128.292 152.341 119.366 147.287 110.625 149.603C101.878 151.919 96.6307 160.74 98.9011 169.299C98.9781 169.588 99.1203 169.839 99.2125 170.12C98.0855 170.455 96.9625 170.844 95.8349 171.145C86.1401 173.716 76.6953 174.909 67.7484 174.697C64.8584 158.171 64.4203 140.032 66.4588 120.761C81.5407 121.009 98.3828 115.028 112.674 104.643C113.007 104.403 113.331 104.164 113.651 103.919C125.552 117.513 136.863 130.495 147.329 142.575L154.992 151.433C167.081 165.44 178.053 178.259 187.633 189.581C186.172 190.799 184.669 192.023 183.148 193.217C163.279 208.844 140.552 220.001 117.849 225.444C119.016 227.188 120.298 228.821 121.646 230.385C144.328 224.548 166.893 213.265 186.681 197.704C188.24 196.477 189.799 195.213 191.317 193.933C194.556 197.777 197.599 201.403 200.528 204.912C202.452 203.183 204.596 201.799 206.888 200.643C203.608 196.685 200.332 192.747 197.096 188.876C213.865 173.645 227.016 156.305 236.041 137.851C237.744 138.195 239.541 138.213 241.341 137.735C247.471 136.108 251.148 129.931 249.559 123.931C247.968 117.931 241.709 114.384 235.581 116.009C229.452 117.636 225.775 123.813 227.365 129.813C227.963 132.068 229.221 133.973 230.881 135.391C222.207 153.127 209.572 169.813 193.437 184.505C181 169.692 169.035 155.716 157.845 142.931L154.081 138.648C141.165 123.973 129.283 110.921 118.745 99.8347C122.884 96.2747 126.544 92.44 129.771 88.4307C131.191 88.7214 132.69 88.7334 134.191 88.3347C139.28 86.9854 142.339 81.8507 141.015 76.8627C139.691 71.876 134.488 68.9267 129.398 70.2774C124.298 71.6294 121.246 76.768 122.566 81.752C122.964 83.2547 123.743 84.5374 124.734 85.608C121.814 89.1454 118.51 92.5374 114.805 95.704C102.642 83.0774 92.3443 73.2 84.174 66.3227C86.2369 64.752 87.45 62.4094 87.45 60.1334L88.4823 60.0494C90.424 59.8974 92.514 59.728 92.8197 59.7187C101.504 59.3974 114.329 59.2734 129.305 60.216C132.042 60.388 151.895 62.3467 155.988 62.936C169.52 64.888 182.089 67.636 193.504 71.1454C192.857 75.5987 191.796 80.1454 190.351 84.6734C186.093 98.0774 178.761 111.096 168.86 123.115C170.335 124.317 171.744 125.617 173.105 126.983C183.556 114.335 191.283 100.577 195.789 86.3974C197.223 81.9054 198.299 77.384 199.004 72.9307C210.471 76.832 220.544 81.8134 229.572 87.0467C249.931 98.8507 261.223 117.072 265.308 126.143L267.28 130.523L266.98 125.733C266.94 125.065 265.761 109.244 249.185 92.716C247.428 90.8787 243.813 87.6787 243.803 87.82C232.52 78.4147 217.735 71.0094 199.817 65.8014C200.468 56.1547 199.231 47.1667 196.145 39.0707C195.547 37.516 194.971 36.164 194.381 34.9307C192.7 31.4454 190.66 28.1667 188.305 25.176C184.317 20.1174 179.427 15.8374 173.735 12.44C196.172 17.764 216.968 28.8374 233.903 44.4707C234.579 45.6427 235.219 46.82 235.799 47.9614C236.841 50.0187 237.799 52.1881 238.652 54.3894C241.348 61.3294 242.931 68.7827 243.547 76.5987C245.403 78.384 247.4 80.0654 249.489 81.6427C249.329 73.44 248.209 65.556 245.976 58.1507C245.82 57.6294 245.657 57.112 245.492 56.5987C250.507 62.5614 255.167 68.8934 258.907 75.7614C286.008 125.532 284.133 163.572 284.133 163.572C286.891 144.973 286.008 125.532 280.893 106.237" fill="#4D5555"/>
</svg>
