<?xml version="1.0" encoding="UTF-8" standalone="no"?>
<svg
   xmlns:dc="http://purl.org/dc/elements/1.1/"
   xmlns:cc="http://creativecommons.org/ns#"
   xmlns:rdf="http://www.w3.org/1999/02/22-rdf-syntax-ns#"
   xmlns:svg="http://www.w3.org/2000/svg"
   xmlns="http://www.w3.org/2000/svg"
   xmlns:sodipodi="http://sodipodi.sourceforge.net/DTD/sodipodi-0.dtd"
   xmlns:inkscape="http://www.inkscape.org/namespaces/inkscape"
   version="1.1"
   id="svg2"
   xml:space="preserve"
   width="1174.2133"
   height="361.64001"
   viewBox="0 0 1174.2133 361.64001"
   sodipodi:docname="Freight People logo C.eps"><metadata
     id="metadata8"><rdf:RDF><cc:Work
         rdf:about=""><dc:format>image/svg+xml</dc:format><dc:type
           rdf:resource="http://purl.org/dc/dcmitype/StillImage" /></cc:Work></rdf:RDF></metadata><defs
     id="defs6" /><sodipodi:namedview
     pagecolor="#ffffff"
     bordercolor="#666666"
     borderopacity="1"
     objecttolerance="10"
     gridtolerance="10"
     guidetolerance="10"
     inkscape:pageopacity="0"
     inkscape:pageshadow="2"
     inkscape:window-width="640"
     inkscape:window-height="480"
     id="namedview4" /><g
     id="g10"
     inkscape:groupmode="layer"
     inkscape:label="ink_ext_XXXXXX"
     transform="matrix(1.3333333,0,0,-1.3333333,0,361.64)"><g
       id="g12"
       transform="scale(0.1)"><path
         d="m 1844.89,1283.58 v -71.91 h 158.56 V 1080.13 H 1844.89 V 627.539 h -130.1 v 452.591 h -79.87 v 131.54 h 79.87 v 59.35 c 0,141.49 103.83,208.78 208.78,208.78 49.06,0 98.13,-13.68 136.94,-42.21 l -50.2,-100.39 c -25.12,18.24 -55.91,28.51 -83.33,28.51 -44.49,0 -82.09,-25.1 -82.09,-82.13"
         style="fill:#42be93;fill-opacity:1;fill-rule:nonzero;stroke:none"
         id="path14" /><path
         d="m 2259.38,1113.56 c 41.06,82.14 114.08,125.53 209.93,125.53 v -125.53 c -122.1,6.86 -199.68,-65.01 -209.93,-168.849 V 627.539 h -131.24 v 606.951 h 131.24 v -120.93"
         style="fill:#42be93;fill-opacity:1;fill-rule:nonzero;stroke:none"
         id="path16" /><path
         d="m 2987.71,976.629 c -4.56,98.141 -69.58,157.461 -168.87,157.461 -95.82,0 -163.16,-60.46 -178,-157.461 z m 114.08,-95.809 h -458.65 c 20.55,-93.59 92.42,-151.781 188.24,-151.781 66.16,0 126.67,25.133 171.14,70.77 l 69.59,-74.168 c -59.28,-65.02 -146.04,-102.7 -250.97,-102.7 -187.16,0 -310.35,124.368 -310.35,306.95 0,183.669 126.62,308.049 306.92,309.199 213.34,0 300.02,-139.21 284.08,-358.27"
         style="fill:#42be93;fill-opacity:1;fill-rule:nonzero;stroke:none"
         id="path18" /><path
         d="m 3205.3,627.539 v 606.951 h 130.08 V 627.539 Z m 141.49,780.371 c 0,-45.64 -33.09,-78.72 -76.48,-78.72 -43.34,0 -76.42,33.08 -76.42,78.72 0,46.8 33.08,79.88 76.42,79.88 43.39,0 76.48,-33.08 76.48,-79.88"
         style="fill:#42be93;fill-opacity:1;fill-rule:nonzero;stroke:none"
         id="path20" /><path
         d="m 3937.04,947 c 0,109.51 -71.88,185.94 -174.58,185.94 -103.85,0 -175.72,-77.6 -176.87,-185.94 1.15,-109.551 71.9,-187.129 176.87,-187.129 102.7,0 174.58,77.578 174.58,187.129 z m 130.07,-260.148 c 0,-174.582 -124.37,-284.114 -314.95,-284.114 -94.67,0 -177.94,29.684 -252.11,79.864 l 55.93,94.738 c 56.99,-42.231 116.34,-66.211 190.51,-66.211 115.24,0 190.55,67.32 190.55,172.32 v 76.422 C 3895.97,693.68 3827.48,657.18 3736.24,657.18 c -164.32,0 -273.87,118.66 -273.87,293.23 0,171.14 108.41,287.53 269.29,288.68 93.54,1.1 163.16,-36.53 205.38,-102.71 v 98.11 h 130.07 V 686.852"
         style="fill:#42be93;fill-opacity:1;fill-rule:nonzero;stroke:none"
         id="path22" /><path
         d="M 4770.44,1005.17 V 627.539 H 4639.18 V 968.68 c 0,91.24 -54.73,147.17 -146.02,147.17 -108.38,-1.13 -173.44,-82.16 -173.44,-189.401 v -298.91 h -131.16 v 846.541 h 131.16 v -358.23 c 43.41,85.56 120.94,123.24 224.77,123.24 141.49,0 225.95,-88.98 225.95,-233.92"
         style="fill:#42be93;fill-opacity:1;fill-rule:nonzero;stroke:none"
         id="path24" /><path
         d="m 5279.7,666.309 c -47.94,-28.508 -98.15,-44.489 -149.48,-44.489 -91.26,0 -169.99,52.469 -169.99,176.84 v 281.47 h -85.55 v 131.54 h 85.55 v 166.61 h 130.08 v -166.61 h 179.08 V 1080.13 H 5090.31 V 822.641 c 0,-62.77 23.96,-82.18 64.99,-82.18 27.41,0 55.93,9.148 91.29,26.269 l 33.11,-100.421"
         style="fill:#42be93;fill-opacity:1;fill-rule:nonzero;stroke:none"
         id="path26" /><path
         d="m 5059.04,145.16 c 17.37,-11.14 42.3,-19.59 69.02,-19.59 39.62,0 62.77,20.922 62.77,51.2 0,27.601 -16.03,44.082 -56.54,59.218 -48.98,17.813 -79.26,43.633 -79.26,85.481 0,46.75 38.74,81.492 97.07,81.492 30.27,0 52.98,-7.129 65.9,-14.699 l -10.7,-31.614 c -9.34,5.793 -29.38,14.25 -56.54,14.25 -40.97,0 -56.54,-24.488 -56.54,-44.968 0,-28.051 18.25,-41.86 59.66,-57.879 50.76,-19.59 76.14,-44.09 76.14,-88.172 0,-46.297 -33.85,-86.8204 -104.64,-86.8204 -28.94,0 -60.56,8.9024 -76.58,19.6014 l 10.24,32.5"
         style="fill:#42be93;fill-opacity:1;fill-rule:nonzero;stroke:none"
         id="path28" /><path
         d="M 5282.1,97.9609 V 313.461 h 39.19 V 97.9609 Z m 43.64,276.0511 c 0,-13.364 -9.35,-24.043 -24.94,-24.043 -14.25,0 -23.59,10.679 -23.59,24.043 0,13.359 9.79,24.488 24.48,24.488 14.25,0 24.05,-10.68 24.05,-24.488"
         style="fill:#42be93;fill-opacity:1;fill-rule:nonzero;stroke:none"
         id="path30" /><path
         d="m 5386.28,255.141 c 0,22.699 -0.89,40.507 -1.78,58.32 h 34.29 l 1.78,-35.18 h 1.33 c 12.03,20.489 32.06,39.629 68.13,39.629 28.93,0 51.2,-17.801 60.55,-43.18 h 0.89 c 6.68,12.461 15.58,21.36 24.49,28.04 12.91,9.8 26.72,15.14 47.19,15.14 28.95,0 71.24,-18.699 71.24,-93.5 V 97.9609 H 5656.1 V 219.512 c 0,41.859 -15.58,66.347 -46.74,66.347 -22.71,0 -39.63,-16.48 -46.76,-35.179 -1.78,-5.789 -3.12,-12.469 -3.12,-19.59 V 97.9609 h -38.29 V 227.082 c 0,34.289 -15.14,58.777 -44.97,58.777 -24.04,0 -42.29,-19.597 -48.52,-39.187 -2.23,-5.34 -3.13,-12.461 -3.13,-19.141 V 97.9609 h -38.29 V 255.141"
         style="fill:#42be93;fill-opacity:1;fill-rule:nonzero;stroke:none"
         id="path32" /><path
         d="m 5796.36,185.672 c 0,-5.793 0.45,-11.133 1.77,-16.024 7.13,-27.168 30.73,-45.867 58.78,-45.867 41.41,0 65.45,33.848 65.45,83.258 0,42.742 -22.7,79.711 -64.11,79.711 -26.72,0 -52.1,-18.699 -59.22,-48.09 -1.33,-4.898 -2.67,-10.691 -2.67,-15.582 z m -38.74,57.437 c 0,27.602 -0.89,49.871 -1.78,70.352 h 34.73 l 2.22,-36.961 h 0.89 c 15.59,26.27 41.42,41.41 76.59,41.41 52.54,0 91.72,-44.07 91.72,-109.078 0,-77.473 -47.64,-115.7734 -98.4,-115.7734 -28.49,0 -53.43,12.4724 -66.34,33.8394 h -0.89 V 9.78906 h -38.74 V 243.109"
         style="fill:#42be93;fill-opacity:1;fill-rule:nonzero;stroke:none"
         id="path34" /><path
         d="m 6010.95,414.09 h 39.19 V 97.9609 h -39.19 V 414.09"
         style="fill:#42be93;fill-opacity:1;fill-rule:nonzero;stroke:none"
         id="path36" /><path
         d="M 6116.03,97.9609 V 313.461 h 39.18 V 97.9609 Z m 43.64,276.0511 c 0,-13.364 -9.36,-24.043 -24.94,-24.043 -14.25,0 -23.6,10.679 -23.6,24.043 0,13.359 9.8,24.488 24.49,24.488 14.24,0 24.05,-10.68 24.05,-24.488"
         style="fill:#42be93;fill-opacity:1;fill-rule:nonzero;stroke:none"
         id="path38" /><path
         d="M 6224.22,97.9609 V 283.629 h -29.84 v 29.832 h 29.84 v 10.238 c 0,30.27 7.12,57.883 24.93,75.242 14.7,14.25 34.29,20.039 52.54,20.039 14.25,0 25.82,-3.109 33.4,-6.23 l -5.35,-30.281 c -5.78,2.679 -13.35,4.902 -24.94,4.902 -33.38,0 -41.85,-28.941 -41.85,-62.332 v -11.578 h 52.1 v -29.832 h -52.1 V 97.9609 h -38.73"
         style="fill:#42be93;fill-opacity:1;fill-rule:nonzero;stroke:none"
         id="path40" /><path
         d="m 6364.46,313.461 46.76,-127.34 c 5.34,-14.25 10.68,-31.172 14.25,-44.082 h 0.89 c 4,12.91 8.45,29.383 13.8,44.973 l 42.74,126.449 h 41.42 L 6465.54,159.852 C 6437.49,85.9414 6418.34,48.5313 6391.63,24.9414 6372.03,8.46875 6353.34,1.78906 6343.54,0 l -9.8,32.5117 c 9.8,3.1094 22.72,9.3399 34.29,19.1367 10.68,8.4727 23.6,23.6016 32.95,43.6329 1.77,4.0195 3.11,7.1287 3.11,9.3597 0,2.218 -0.89,5.339 -3.11,10.238 l -79.26,198.582 h 42.74"
         style="fill:#42be93;fill-opacity:1;fill-rule:nonzero;stroke:none"
         id="path42" /><path
         d="M 6559.92,97.9609 V 313.461 h 39.19 V 97.9609 Z m 43.64,276.0511 c 0,-13.364 -9.35,-24.043 -24.94,-24.043 -14.24,0 -23.59,10.679 -23.59,24.043 0,13.359 9.79,24.488 24.48,24.488 14.25,0 24.05,-10.68 24.05,-24.488"
         style="fill:#42be93;fill-opacity:1;fill-rule:nonzero;stroke:none"
         id="path44" /><path
         d="m 6664.1,255.141 c 0,22.699 -0.44,40.507 -1.78,58.32 h 34.73 l 2.23,-35.621 h 0.89 c 10.69,20.039 35.62,40.07 71.24,40.07 29.83,0 76.14,-17.801 76.14,-91.719 V 97.9609 h -39.18 V 222.191 c 0,34.719 -12.92,63.668 -49.87,63.668 -25.38,0 -45.41,-18.257 -52.54,-40.078 -1.78,-4.89 -2.67,-11.57 -2.67,-18.25 V 97.9609 H 6664.1 V 255.141"
         style="fill:#42be93;fill-opacity:1;fill-rule:nonzero;stroke:none"
         id="path46" /><path
         d="m 7056.37,228.422 c 0,6.68 -0.45,12.469 -2.23,17.359 -7.13,23.149 -25.82,41.86 -54.76,41.86 -37.41,0 -64.13,-31.621 -64.13,-81.493 0,-42.289 21.82,-77.468 63.68,-77.468 24.49,0 46.3,15.14 54.32,40.07 2.23,6.68 3.12,14.25 3.12,20.93 z m 39.18,-98.852 c 0,-49.8591 -10.24,-79.6989 -30.73,-98.8512 -21.36,-19.1368 -51.65,-25.82036 -78.8,-25.82036 -25.82,0 -54.32,6.23046 -71.68,17.81246 l 9.79,30.2774 c 14.25,-9.3477 36.5,-17.3672 63.22,-17.3672 40.07,0 69.47,20.9297 69.47,75.6989 v 23.59 h -0.9 c -11.57,-20.031 -35.18,-36.0584 -68.57,-36.0584 -53.42,0 -91.72,45.4184 -91.72,105.0704 0,73.027 47.64,113.988 97.51,113.988 37.4,0 57.44,-19.14 67.23,-36.949 h 0.89 l 1.34,32.5 h 34.73 c -1.33,-15.141 -1.78,-32.949 -1.78,-58.77 V 129.57"
         style="fill:#42be93;fill-opacity:1;fill-rule:nonzero;stroke:none"
         id="path48" /><path
         d="m 7255.38,398.059 h 39.18 V 130.461 h 128.23 V 97.9609 H 7255.38 V 398.059"
         style="fill:#42be93;fill-opacity:1;fill-rule:nonzero;stroke:none"
         id="path50" /><path
         d="m 7482.89,205.262 c 0,-47.192 26.72,-82.813 65.01,-82.813 37.4,0 65.45,35.18 65.45,83.699 0,36.524 -18.25,82.372 -64.56,82.372 -45.86,0 -65.9,-42.739 -65.9,-83.258 z m 170.53,2.226 c 0,-79.699 -55.66,-114.4294 -107.31,-114.4294 -57.88,0 -103.29,42.7424 -103.29,110.8634 0,71.687 47.64,113.988 106.86,113.988 61.89,0 103.74,-44.969 103.74,-110.422"
         style="fill:#42be93;fill-opacity:1;fill-rule:nonzero;stroke:none"
         id="path52" /><path
         d="m 7847.99,228.422 c 0,6.68 -0.45,12.469 -2.23,17.359 -7.13,23.149 -25.82,41.86 -54.76,41.86 -37.41,0 -64.12,-31.621 -64.12,-81.493 0,-42.289 21.81,-77.468 63.67,-77.468 24.49,0 46.31,15.14 54.32,40.07 2.23,6.68 3.12,14.25 3.12,20.93 z m 39.18,-98.852 c 0,-49.8591 -10.24,-79.6989 -30.72,-98.8512 -21.37,-19.1368 -51.66,-25.82036 -78.81,-25.82036 -25.82,0 -54.32,6.23046 -71.68,17.81246 l 9.79,30.2774 c 14.25,-9.3477 36.51,-17.3672 63.22,-17.3672 40.07,0 69.47,20.9297 69.47,75.6989 v 23.59 h -0.9 c -11.57,-20.031 -35.18,-36.0584 -68.57,-36.0584 -53.42,0 -91.71,45.4184 -91.71,105.0704 0,73.027 47.63,113.988 97.51,113.988 37.39,0 57.43,-19.14 67.22,-36.949 h 0.89 l 1.34,32.5 h 34.74 c -1.34,-15.141 -1.79,-32.949 -1.79,-58.77 V 129.57"
         style="fill:#42be93;fill-opacity:1;fill-rule:nonzero;stroke:none"
         id="path54" /><path
         d="M 7949.04,97.9609 V 313.461 h 39.19 V 97.9609 Z m 43.65,276.0511 c 0,-13.364 -9.36,-24.043 -24.95,-24.043 -14.24,0 -23.59,10.679 -23.59,24.043 0,13.359 9.8,24.488 24.48,24.488 14.25,0 24.06,-10.68 24.06,-24.488"
         style="fill:#42be93;fill-opacity:1;fill-rule:nonzero;stroke:none"
         id="path56" /><path
         d="m 8047.89,137.59 c 12.02,-7.129 32.51,-15.141 52.1,-15.141 28.05,0 41.41,13.801 41.41,32.051 0,18.699 -11.14,28.5 -39.63,39.191 -39.18,14.25 -57.44,35.18 -57.44,61 0,34.719 28.49,63.219 74.36,63.219 21.82,0 40.96,-5.781 52.54,-13.351 l -9.35,-28.5 c -8.46,5.351 -24.05,12.91 -44.09,12.91 -23.14,0 -35.61,-13.36 -35.61,-29.379 0,-17.809 12.47,-25.828 40.52,-36.961 36.95,-13.797 56.54,-32.5 56.54,-64.559 0,-38.3 -29.83,-65.0114 -80.14,-65.0114 -23.6,0 -45.42,6.2422 -60.56,15.1404 l 9.35,29.391"
         style="fill:#42be93;fill-opacity:1;fill-rule:nonzero;stroke:none"
         id="path58" /><path
         d="m 8276.74,365.109 v -51.648 h 56.1 v -29.832 h -56.1 V 167.422 c 0,-26.723 7.57,-41.852 29.38,-41.852 10.7,0 16.93,0.879 22.72,2.66 l 1.78,-29.8198 c -7.57,-2.6797 -19.59,-5.3516 -34.73,-5.3516 -18.26,0 -32.95,6.2422 -42.31,16.4724 -10.68,12.02 -15.13,31.168 -15.13,56.551 v 117.547 h -33.39 v 29.832 h 33.39 v 40.07 l 38.29,11.578"
         style="fill:#42be93;fill-opacity:1;fill-rule:nonzero;stroke:none"
         id="path60" /><path
         d="M 8376.91,97.9609 V 313.461 h 39.19 V 97.9609 Z m 43.65,276.0511 c 0,-13.364 -9.36,-24.043 -24.94,-24.043 -14.25,0 -23.6,10.679 -23.6,24.043 0,13.359 9.8,24.488 24.48,24.488 14.25,0 24.06,-10.68 24.06,-24.488"
         style="fill:#42be93;fill-opacity:1;fill-rule:nonzero;stroke:none"
         id="path62" /><path
         d="m 8634.72,105.531 c -10.24,-4.902 -32.95,-12.4724 -61.89,-12.4724 -65.01,0 -107.3,44.0824 -107.3,109.9804 0,66.34 45.41,114.871 115.76,114.871 23.15,0 43.63,-5.781 54.32,-11.57 l -8.91,-29.84 c -9.35,4.91 -24.04,10.25 -45.41,10.25 -49.42,0 -76.14,-36.969 -76.14,-81.488 0,-49.864 32.06,-80.582 74.8,-80.582 22.27,0 36.95,5.34 48.09,10.23 l 6.68,-29.379"
         style="fill:#42be93;fill-opacity:1;fill-rule:nonzero;stroke:none"
         id="path64" /><path
         d="m 8675.22,137.59 c 12.03,-7.129 32.51,-15.141 52.1,-15.141 28.05,0 41.41,13.801 41.41,32.051 0,18.699 -11.13,28.5 -39.63,39.191 -39.18,14.25 -57.44,35.18 -57.44,61 0,34.719 28.5,63.219 74.37,63.219 21.81,0 40.95,-5.781 52.53,-13.351 l -9.35,-28.5 c -8.46,5.351 -24.04,12.91 -44.08,12.91 -23.15,0 -35.62,-13.36 -35.62,-29.379 0,-17.809 12.47,-25.828 40.52,-36.961 36.95,-13.797 56.54,-32.5 56.54,-64.559 0,-38.3 -29.82,-65.0114 -80.14,-65.0114 -23.6,0 -45.41,6.2422 -60.55,15.1404 l 9.34,29.391"
         style="fill:#42be93;fill-opacity:1;fill-rule:nonzero;stroke:none"
         id="path66" /><path
         d="m 5920.59,924.191 c 0,147.149 -102.71,254.389 -246.45,254.389 -142.66,0 -245.31,-107.24 -245.31,-254.389 0,-147.203 102.65,-253.3 245.31,-253.3 143.74,0 246.45,106.097 246.45,253.3 z m 46.76,0 c 0,-173.429 -118.66,-297.8 -286.4,-297.8 -116.39,0 -207.63,60.461 -252.12,156.3 v -309.66 h -47.9 v 748.949 h 47.9 v -156.36 c 44.49,97.01 135.73,157.46 252.12,157.46 166.59,0 286.4,-124.35 286.4,-298.889"
         style="fill:#4d5555;fill-opacity:1;fill-rule:nonzero;stroke:none"
         id="path68" /><path
         d="m 6589.56,953.859 c -9.09,134.591 -96.97,225.881 -232.73,225.881 -133.48,0 -230.48,-91.29 -241.89,-225.881 z m 43.37,-42.257 h -519.16 c 6.9,-144.872 107.27,-241.864 245.36,-241.864 80.96,0 152.83,29.672 200.8,82.121 l 27.33,-30.781 c -54.73,-59.297 -135.77,-94.687 -230.43,-94.687 -167.72,0 -289.79,123.218 -289.79,297.8 0,174.539 122.07,298.889 289.79,298.889 174.57,0 279.5,-127.78 276.1,-311.478"
         style="fill:#4d5555;fill-opacity:1;fill-rule:nonzero;stroke:none"
         id="path70" /><path
         d="m 6752.39,924.191 c 0,-149.5 103.86,-253.3 246.45,-253.3 143.77,0 246.44,103.8 246.44,253.3 0,149.439 -102.67,253.239 -246.44,253.239 -142.59,0 -246.45,-103.8 -246.45,-253.239 z m 539.69,1.118 c 0,-175.7 -123.24,-298.918 -293.24,-298.918 -168.84,0 -293.23,123.218 -293.23,298.918 0,173.421 124.39,297.771 293.23,297.771 170,0 293.24,-124.35 293.24,-297.771"
         style="fill:#4d5555;fill-opacity:1;fill-rule:nonzero;stroke:none"
         id="path72" /><path
         d="m 7910.58,924.191 c 0,147.149 -102.66,254.389 -246.45,254.389 -142.59,0 -245.31,-107.24 -245.31,-254.389 0,-147.203 102.72,-253.3 245.31,-253.3 143.79,0 246.45,106.097 246.45,253.3 z m 46.79,0 c 0,-173.429 -118.64,-297.8 -286.35,-297.8 -116.42,0 -207.68,60.461 -252.2,156.3 v -309.66 h -47.92 v 748.949 h 47.92 v -156.36 c 44.52,97.01 135.78,157.46 252.2,157.46 166.54,0 286.35,-124.35 286.35,-298.889"
         style="fill:#4d5555;fill-opacity:1;fill-rule:nonzero;stroke:none"
         id="path74" /><path
         d="m 8069.64,627.539 v 846.541 h 47.95 V 627.539 h -47.95"
         style="fill:#4d5555;fill-opacity:1;fill-rule:nonzero;stroke:none"
         id="path76" /><path
         d="m 8752.37,953.859 c -9.11,134.591 -96.94,225.881 -232.7,225.881 -133.53,0 -230.5,-91.29 -241.87,-225.881 z m 43.44,-42.257 h -519.18 c 6.84,-144.872 107.23,-241.864 245.31,-241.864 80.99,0 152.84,29.672 200.8,82.121 l 27.38,-30.781 c -54.73,-59.297 -135.75,-94.687 -230.45,-94.687 -167.75,0 -289.84,123.218 -289.84,297.8 0,174.539 122.09,298.889 289.84,298.889 174.57,0 279.5,-127.78 276.14,-311.478"
         style="fill:#4d5555;fill-opacity:1;fill-rule:nonzero;stroke:none"
         id="path78" /><path
         d="m 1378.65,2497 c 12.24,-15.48 23.14,-32.27 33.36,-51.3 5.18,-9.74 9.96,-19.6 14.12,-29.43 23.54,-55.54 33.71,-118.04 30.28,-185.93 -79.44,20.34 -167.12,35.34 -261.84,44.82 -36.67,3.68 -192.82,11.5 -211.523,11.8 -103.379,1.65 -213.891,-2 -329.508,-10.93 -1.367,4.02 -3.348,7.77 -5.809,11.04 -2.785,3.73 -6.203,6.95 -10.203,9.57 51.555,51 152.703,140.57 290.168,212.37 95.105,-30.06 136.325,-102.54 154.325,-148.83 -0.2,1.66 -0.3,3.34 -0.53,4.95 -1.47,9.83 -3.54,19.95 -6.26,30.05 -7.69,28.36 -20.09,54.45 -36.83,77.48 -17.02,23.36 -38.466,43.32 -63.99,59.43 82.04,37.96 166.46,64.23 250.48,77.87 62.98,-25.37 114.72,-63.38 153.76,-112.96 z M 617.594,2303.89 c -14.922,2 -31.266,-2.46 -44.485,-12.33 -2.918,-2.14 -5.566,-4.58 -8.168,-7.34 l -118.414,107.53 c 13.532,11.52 25.332,21.3 37.676,30.27 62.485,45.42 121.172,76.23 199.891,97.09 l -1.692,6.35 3.438,-5.91 c 67.375,17.74 132.285,20.36 188.168,7.61 -96.418,-55.39 -182.461,-130.39 -256.414,-223.27 z m 206.527,-338.7 c -1.391,-1.08 -2.808,-2.09 -4.223,-3.1 -98.296,-71.46 -213.554,-113.29 -316.425,-112.85 14.574,112.8 40.234,231.88 76.367,354.09 10.238,-2.72 21.808,-2.16 33.027,1.81 37.406,-42.28 114.153,-129.24 211.254,-239.95 z m -358.176,-113.9 c -21.828,2.37 -42.191,6.65 -60.586,12.72 -9.269,3.06 -18.496,6.7 -27.351,10.88 -32.051,15.05 -57.91,35.91 -76.82,61.93 -11.067,15.19 -19.887,32.31 -26.168,50.8 78.714,91.57 173.476,169.06 281.675,230.61 2.207,-2.8 4.852,-5.33 7.907,-7.54 -24.911,-67.59 -68.86,-199.37 -98.657,-359.4 z M 442.25,1407.11 c -78.383,10.78 -146.266,37.2 -201.719,78.63 -8.652,6.47 -17.058,13.37 -24.996,20.5 -15.066,13.53 -28.871,28.23 -41.008,43.62 -35.914,45.57 -59.746,99.43 -70.964,160.22 35.789,85.79 83.019,166.42 140.406,239.9 6.363,-13.59 13.922,-26.45 22.594,-38.33 22.406,-30.77 52.421,-55.53 89.253,-73.52 8.661,-4.24 18.153,-8.24 28.286,-11.92 22.878,-8.24 47.925,-14.03 74.484,-17.11 -23.961,-145.73 -29.469,-280.89 -16.336,-401.99 z m -330.871,510.71 c 6.508,28.07 15.016,56.32 25.246,83.95 l 1.484,3.8 c 1.895,4.87 3.793,9.75 5.805,14.63 6.688,16.77 13.992,33.4 21.754,49.46 6.937,14.77 14.461,29.77 22.02,44.04 l 3.781,5.64 c 20.558,36.53 44.176,72.39 70.551,107.27 -6.649,-13.9 -12.563,-27.84 -17.602,-41.66 -4.496,-12.31 -8.465,-24.87 -11.742,-37.32 -15.371,-58.04 -16.035,-112.43 -2.047,-161.71 -56.535,-62.25 -101.609,-128.14 -134.3087,-196.2 -0.164,41.3 4.8867,84.23 15.0587,128.1 z m 173.23,252.45 c 5.59,15.21 12.504,31.06 20.629,47.09 26.535,52.5 64.125,102.22 111.766,147.8 l 137.355,-95.39 c -6.66,-12.61 -8.203,-26.32 -4.316,-38.42 -52.414,-27.77 -172.797,-97.82 -283.789,-208.18 -6.914,44.7 -0.633,95.27 18.355,147.1 z m 514.926,437.64 c 8.195,2.58 7.723,2.72 27.367,8.06 l 0.164,-0.58 c 78.793,20.5 135.168,27.4 204.974,30.44 4.89,0.21 8.34,0.05 13.21,0.19 l -0.63,-0.84 c 42.81,-0.91 83,-6.41 121.22,-16 -82.36,-12.57 -163.19,-37.55 -238.02,-73.63 -44.793,17.4 -95.554,24.71 -151.074,21.72 -31.758,-1.75 -64.07,-6.74 -96.105,-14.81 38.339,17.57 79.945,33.29 118.894,45.45 z m 43.61,-1068.45 c 36.89,9.8 74.566,-11.55 84.144,-47.67 9.57,-36.12 -12.559,-73.34 -49.473,-83.09 -36.902,-9.8 -74.574,11.52 -84.144,47.66 -9.57,36.1 12.558,73.32 49.473,83.1 z M 277.539,1044.55 c 77.309,-44.851 168.106,-74.241 266.293,-86.89 0.195,-0.851 0.176,-1.699 0.406,-2.551 13.629,-51.468 67.383,-81.961 120.008,-68.007 10.895,2.898 20.617,7.769 29.484,13.66 C 748.207,858.039 829.711,799.828 912.395,745.43 715.266,734.789 550.219,767.32 428.508,875.5 l -3.086,2.711 -1.438,-0.609 C 372.691,923.82 302.898,998.41 262.551,1053.52 c 4.988,-3.08 9.972,-6.07 14.988,-8.97 z M 1338.36,936.609 c 28.53,7.563 57.68,-8.929 65.09,-36.859 7.41,-27.949 -9.75,-56.73 -38.26,-64.281 -28.55,-7.59 -57.68,8.922 -65.11,36.851 -7.38,27.93 9.73,56.739 38.28,64.289 z M 2106.7,1915.52 C 1955.3,2486.42 1367.68,2827.74 796.762,2676.34 225.844,2524.96 -115.488,1937.33 35.9023,1366.43 187.297,795.559 774.965,454.262 1345.86,605.629 c 73.74,19.562 143.68,46.41 209.15,79.562 0,0 -529.83,-216.851 -915.537,32.86 89.172,-17.121 230.648,-20.821 330.492,-8.082 43.165,-18.559 105.265,-40.078 185.555,-52.297 0,0 -105.85,33 -145.89,62.5 3.81,0.687 3.39,0.66 1.89,0.367 123.84,23.691 204.07,58.32 286.65,99.012 20.56,-16.492 48.59,-23.473 76.39,-16.102 45.91,12.192 73.52,58.52 61.58,103.5 -11.94,45.031 -58.85,71.61 -104.79,59.41 -45.97,-12.168 -73.55,-58.539 -61.66,-103.507 1,-3.782 2.59,-7.231 4.06,-10.723 -102.29,-48.68 -195.32,-84.301 -325.305,-97.867 0,0 -145.043,100.308 -223.793,178.718 12.45,21.348 16.828,47.18 10.09,72.64 -13.668,51.52 -67.363,81.91 -119.992,67.96 -36.785,-9.74 -62.875,-38.74 -70.801,-72.85 -106.32,14.44 -202.5,49.62 -280.961,103.55 -14.312,9.82 -28.379,20.53 -41.773,31.84 -9.902,8.32 -18.633,16.14 -26.66,23.95 -39.45,71.42 -70.078,147.81 -91.117,227.09 -19.9692,75.28 -31.1021,153.18 -33.0278,231.51 2.2539,7.34 4.6718,14.82 7.2031,22.39 14.6094,-43.3 35.8557,-82.87 63.2537,-117.66 17.352,-21.99 37.297,-42.31 59.278,-60.36 8.386,-6.91 17.371,-13.71 26.664,-20.11 61.875,-42.89 136.254,-69.66 221.066,-79.65 15.438,-102.79 45.477,-194.47 88.977,-274.56 14.746,16.06 37.961,25.43 61.668,33.02 -35.829,72.96 -63.715,152 -82.004,237.4 68.32,-0.64 140.011,8.84 213.187,28.25 11.836,3.13 23.66,6.55 35.473,10.22 29.336,-35.32 78.015,-52.52 126.125,-39.76 65.554,17.39 104.937,83.51 87.902,147.7 -17.012,64.19 -83.961,102.1 -149.515,84.73 -65.606,-17.37 -104.958,-83.53 -87.93,-147.72 0.578,-2.17 1.644,-4.05 2.336,-6.16 -8.453,-2.51 -16.875,-5.43 -25.332,-7.69 -72.711,-19.28 -143.547,-28.23 -210.649,-26.64 -21.675,123.95 -24.961,259.99 -9.672,404.52 113.114,-1.86 239.43,43 346.614,120.89 2.496,1.8 4.925,3.59 7.328,5.43 89.254,-101.96 174.087,-199.32 252.587,-289.92 l 57.47,-66.44 c 90.67,-105.05 172.96,-201.19 244.81,-286.11 -10.96,-9.13 -22.23,-18.31 -33.64,-27.27 -149.02,-117.2 -319.47,-200.88 -489.743,-241.7 8.754,-13.08 18.367,-25.329 28.481,-37.06 170.112,43.78 339.352,128.4 487.762,245.11 11.69,9.2 23.38,18.68 34.77,28.28 24.29,-28.83 47.11,-56.02 69.08,-82.34 14.43,12.97 30.51,23.35 47.7,32.02 -24.6,29.68 -49.17,59.22 -73.44,88.25 125.77,114.23 224.4,244.28 292.09,382.69 12.77,-2.58 26.25,-2.72 39.75,0.87 45.97,12.2 73.55,58.53 61.63,103.53 -11.93,45 -58.87,71.6 -104.83,59.41 -45.97,-12.2 -73.55,-58.53 -61.62,-103.53 4.48,-16.91 13.92,-31.2 26.37,-41.83 -65.06,-133.02 -159.82,-258.17 -280.83,-368.36 -93.28,111.1 -183.02,215.92 -266.94,311.81 l -28.23,32.12 c -96.87,110.06 -185.985,207.95 -265.024,291.1 31.047,26.7 58.492,55.46 82.695,85.53 10.649,-2.18 21.891,-2.27 33.149,0.72 38.17,10.12 61.11,48.63 51.18,86.04 -9.93,37.4 -48.95,59.52 -87.126,49.39 -38.25,-10.14 -61.136,-48.68 -51.238,-86.06 2.984,-11.27 8.824,-20.89 16.258,-28.92 -21.899,-26.53 -46.68,-51.97 -74.469,-75.72 -91.222,94.7 -168.453,168.78 -229.73,220.36 15.472,11.78 24.57,29.35 24.57,46.42 l 7.742,0.63 c 14.563,1.14 30.238,2.41 32.531,2.48 65.129,2.41 161.317,3.34 273.637,-3.73 20.531,-1.29 169.425,-15.98 200.125,-20.4 101.49,-14.64 195.76,-35.25 281.37,-61.57 -4.85,-33.4 -12.81,-67.5 -23.65,-101.46 -31.93,-100.53 -86.92,-198.17 -161.18,-288.31 11.06,-9.02 21.63,-18.77 31.84,-29.01 78.38,94.86 136.33,198.04 170.13,304.39 10.75,33.69 18.82,67.6 24.11,101 86,-29.26 161.55,-66.62 229.26,-105.87 152.69,-88.53 237.38,-225.19 268.02,-293.22 l 14.79,-32.85 -2.25,35.92 c -0.3,5.01 -9.14,123.67 -133.46,247.63 -13.18,13.78 -40.29,37.78 -40.37,36.72 -84.62,70.54 -195.51,126.08 -329.89,165.14 4.88,72.35 -4.4,139.76 -27.54,200.48 -4.49,11.66 -8.81,21.8 -13.23,31.05 -12.61,26.14 -27.91,50.73 -45.57,73.16 -29.91,37.94 -66.59,70.04 -109.28,95.52 168.28,-39.93 324.25,-122.98 451.26,-240.23 5.07,-8.79 9.87,-17.62 14.22,-26.18 7.82,-15.43 15,-31.7 21.4,-48.21 20.22,-52.05 32.09,-107.95 36.71,-166.57 13.92,-13.39 28.9,-26 44.57,-37.83 -1.2,61.52 -9.6,120.65 -26.35,176.19 -1.17,3.91 -2.39,7.79 -3.63,11.64 37.61,-44.72 72.56,-92.21 100.61,-143.72 203.26,-373.28 189.2,-658.58 189.2,-658.58 20.68,139.49 14.06,285.3 -24.3,430.01"
         style="fill:#4d5555;fill-opacity:1;fill-rule:nonzero;stroke:none"
         id="path80" /></g></g></svg>
